<?xml version="1.0" encoding="utf-8"?>
<!-- Generator: Adobe Illustrator 22.0.1, SVG Export Plug-In . SVG Version: 6.00 Build 0)  -->
<svg version="1.1" id="레이어_1" xmlns="http://www.w3.org/2000/svg" xmlns:xlink="http://www.w3.org/1999/xlink" x="0px"
	 y="0px" viewBox="0 0 141.7 141.7" style="enable-background:new 0 0 141.7 141.7;" xml:space="preserve">
<style type="text/css">
	.st0{fill:#FFFFFF;}
</style>
<path d="M105.7,36L70.9,21.6L36,36L21.6,70.9L36,105.7l34.9,14.4l34.9-14.4l14.4-34.9L105.7,36z M70.9,115.2
	c-24.5,0-44.3-19.8-44.3-44.3c0-24.5,19.8-44.3,44.3-44.3c24.5,0,44.3,19.8,44.3,44.3C115.2,95.3,95.3,115.2,70.9,115.2"/>
<path d="M70.9,18C41.7,18,18,41.7,18,70.9c0,29.2,23.7,52.9,52.9,52.9c29.2,0,52.9-23.7,52.9-52.9C123.7,41.7,100.1,18,70.9,18
	 M108.2,108.2l-37.4,15.5l-37.4-15.5L18,70.9l15.5-37.4L70.9,18l37.4,15.5l15.5,37.4L108.2,108.2z"/>
<g>
	<polygon points="41.7,74.9 36.9,74.9 35,74.9 35,70.1 35,67.2 35,66.8 37.3,66.8 37.3,70.1 37.3,74.1 41.7,74.1 	"/>
	<polygon points="62.7,74.9 60.4,74.9 60.4,68.2 60.4,67.2 60.4,66.7 62.7,66.7 62.7,68.2 	"/>
	<polygon points="74,70.1 74,70.8 71.6,70.8 71.6,73.4 71.6,74.9 69.3,74.9 69.3,68.2 69.3,67.2 69.3,66.8 71.6,66.8 74.5,66.8 
		74.5,67.9 71.6,67.9 71.6,70.1 	"/>
	<polygon points="78.1,74.9 75.8,74.9 75.8,68.2 75.8,67.3 75.8,66.8 78.1,66.8 78.1,68.2 	"/>
	<polygon points="86.2,74.9 81.5,74.9 79.6,74.9 79.6,70.1 79.6,67.2 79.6,66.8 81.9,66.8 81.9,70.1 81.9,74.1 86.2,74.1 	"/>
	<polygon points="94.2,74.9 89.4,74.9 87.5,74.9 87.5,70.1 87.5,67.2 87.5,66.8 89.8,66.8 89.8,70.1 89.8,74.1 94.2,74.1 	"/>
	<path d="M55.4,66.7L55.4,66.7l-2,0h-1.5v1.4V71v1.4v2.4h1.5h0.2h1.9v0c2.2,0,3.7-1.8,3.7-4.1S57.6,66.8,55.4,66.7 M55.4,73.8
		L55.4,73.8l-1.3,0v-6h1.3v0c1.5,0,2.6,1.1,2.6,3C58,72.7,56.8,73.7,55.4,73.8"/>
	<path d="M97,74c0,0.5-0.4,0.9-0.9,0.9c-0.5,0-0.9-0.4-0.9-0.9s0.4-0.9,0.9-0.9C96.6,73.2,97,73.5,97,74"/>
	<path d="M46.3,66.6c-2.3,0-4.2,1.9-4.2,4.2c0,2.3,1.9,4.2,4.2,4.2s4.2-1.9,4.2-4.2C50.6,68.5,48.7,66.6,46.3,66.6 M46.3,73.8v-5.8
		c1.6,0,2.9,1.3,2.9,2.9C49.2,72.5,47.9,73.8,46.3,73.8"/>
	<path d="M102.5,66.6c-2.3,0-4.2,1.9-4.2,4.2c0,2.3,1.9,4.2,4.2,4.2c2.3,0,4.2-1.9,4.2-4.2C106.8,68.5,104.8,66.6,102.5,66.6
		 M102.5,73.8v-5.8c1.6,0,2.9,1.3,2.9,2.9C105.4,72.5,104.1,73.8,102.5,73.8"/>
</g>
<rect x="-151.3" y="0" width="141.7" height="141.7"/>
<path class="st0" d="M-40.5,30.9l-40-16.6l-40,16.6l-16.6,40l16.6,40l40,16.6l40-16.6l16.6-40L-40.5,30.9z M-80.5,119.2
	c-26.7,0-48.3-21.6-48.3-48.3c0-26.7,21.6-48.3,48.3-48.3c26.7,0,48.3,21.6,48.3,48.3C-32.2,97.5-53.8,119.2-80.5,119.2"/>
<path class="st0" d="M-80.5,6.8c-35.4,0-64.1,28.7-64.1,64.1c0,35.4,28.7,64.1,64.1,64.1c35.4,0,64.1-28.7,64.1-64.1
	C-16.4,35.5-45.1,6.8-80.5,6.8 M-36.5,114.8l-44,18.2l-44-18.2l-18.2-44l18.2-44l44-18.2l44,18.2l18.2,44L-36.5,114.8z"/>
<g>
	<polygon class="st0" points="-109.7,74.9 -114.4,74.9 -116.4,74.9 -116.4,70.1 -116.4,67.2 -116.4,66.8 -114,66.8 -114,70.1 
		-114,74.1 -109.7,74.1 	"/>
	<polygon class="st0" points="-88.6,74.9 -90.9,74.9 -90.9,68.2 -90.9,67.2 -90.9,66.7 -88.6,66.7 -88.6,68.2 	"/>
	<polygon class="st0" points="-77.3,70.1 -77.3,70.8 -79.7,70.8 -79.7,73.4 -79.7,74.9 -82,74.9 -82,68.2 -82,67.2 -82,66.8 
		-79.7,66.8 -76.8,66.8 -76.8,67.9 -79.7,67.9 -79.7,70.1 	"/>
	<polygon class="st0" points="-73.3,74.9 -75.6,74.9 -75.6,68.2 -75.6,67.3 -75.6,66.8 -73.3,66.8 -73.3,68.2 	"/>
	<polygon class="st0" points="-65.1,74.9 -69.9,74.9 -71.8,74.9 -71.8,70.1 -71.8,67.2 -71.8,66.8 -69.5,66.8 -69.5,70.1 
		-69.5,74.1 -65.1,74.1 	"/>
	<polygon class="st0" points="-57.1,74.9 -61.9,74.9 -63.8,74.9 -63.8,70.1 -63.8,67.2 -63.8,66.8 -61.5,66.8 -61.5,70.1 
		-61.5,74.1 -57.1,74.1 	"/>
	<path class="st0" d="M-95.9,66.7L-95.9,66.7l-2,0h-1.5v1.4V71v1.4v2.4h1.5h0.2h1.9v0c2.2,0,3.7-1.8,3.7-4.1S-93.7,66.8-95.9,66.7
		 M-95.9,73.8L-95.9,73.8l-1.3,0v-6h1.3v0c1.5,0,2.6,1.1,2.6,3C-93.3,72.7-94.5,73.7-95.9,73.8"/>
	<path class="st0" d="M-54.3,74c0,0.5-0.4,0.9-0.9,0.9c-0.5,0-0.9-0.4-0.9-0.9s0.4-0.9,0.9-0.9C-54.7,73.2-54.3,73.5-54.3,74"/>
	<path class="st0" d="M-105,66.6c-2.3,0-4.2,1.9-4.2,4.2c0,2.3,1.9,4.2,4.2,4.2c2.3,0,4.2-1.9,4.2-4.2
		C-100.8,68.5-102.7,66.6-105,66.6 M-105,73.8v-5.8c1.6,0,2.9,1.3,2.9,2.9C-102.1,72.5-103.4,73.8-105,73.8"/>
	<path class="st0" d="M-48.8,66.6c-2.3,0-4.2,1.9-4.2,4.2c0,2.3,1.9,4.2,4.2,4.2c2.3,0,4.2-1.9,4.2-4.2
		C-44.6,68.5-46.5,66.6-48.8,66.6 M-48.8,73.8v-5.8c1.6,0,2.9,1.3,2.9,2.9C-45.9,72.5-47.2,73.8-48.8,73.8"/>
</g>
</svg>
