<svg xmlns="http://www.w3.org/2000/svg" viewBox="0 0 38.04 38.05"><defs><style>.cls-1{fill:none;stroke:#040000;}.cls-1,.cls-3{stroke-miterlimit:10;}.cls-2{fill:#040000;}.cls-3{fill:#fff;stroke:#231815;stroke-linecap:round;}</style></defs><title>자산 4</title><g id="레이어_2" data-name="레이어 2"><g id="레이어_2-2" data-name="레이어 2"><circle class="cls-1" cx="20.77" cy="17.27" r="16.77"/><circle class="cls-1" cx="20.77" cy="17.27" r="15.46"/><path class="cls-2" d="M29.32,15.28a.38.38,0,0,0,.37-.37V13.67a.37.37,0,0,0-.37-.37H27.83l.58-2.5a.38.38,0,0,0-.36-.46H26.62a.37.37,0,0,0-.36.3l-.45,2.66h-3.4l-.61-2.67a.38.38,0,0,0-.37-.29H20.07a.37.37,0,0,0-.36.29l-.62,2.67H15.72l-.54-2.66a.37.37,0,0,0-.36-.3H13.51a.37.37,0,0,0-.36.46l.56,2.5H12.22a.37.37,0,0,0-.37.37v1.24a.38.38,0,0,0,.37.37h1.93l.23,1H12.22a.38.38,0,0,0-.37.37v1.24a.38.38,0,0,0,.37.37h2.6l1.27,5.66a.37.37,0,0,0,.36.29h1.76a.37.37,0,0,0,.36-.29l1.31-5.66h1.71l1.31,5.66a.37.37,0,0,0,.36.29H25a.36.36,0,0,0,.36-.29l1.31-5.66h2.63a.38.38,0,0,0,.37-.37V16.64a.38.38,0,0,0-.37-.37H27.15l.23-1ZM17.54,19.92a10.24,10.24,0,0,0-.22,1.46h0a12.83,12.83,0,0,0-.21-1.46l-.34-1.67h1.2Zm.86-3.65H16.33l-.2-1h2.5Zm1.94,0,.07-.27c.05-.25.1-.49.14-.72h.37q.06.35.15.72l.06.27Zm4.06,3.65a12.83,12.83,0,0,0-.21,1.46h0a12.32,12.32,0,0,0-.22-1.46l-.39-1.67h1.21Zm.78-3.65H23.09l-.23-1h2.53Z"/><polygon class="cls-3" points="7.01 21.95 7.01 18.97 3.88 21.77 0.75 24.57 3.87 27.38 6.99 30.18 7 27.2 17.94 27.2 17.94 21.95 7.01 21.95"/><polygon class="cls-3" points="22.3 28.7 22.3 25.71 25.43 28.51 28.56 31.31 25.44 34.12 22.32 36.93 22.31 33.95 11.37 33.95 11.37 28.7 22.3 28.7"/></g></g></svg>