<svg xmlns="http://www.w3.org/2000/svg" viewBox="0 0 47.08 29.24"><defs><style>.cls-1,.cls-2{fill:none;}.cls-1,.cls-2,.cls-4{stroke:#231815;stroke-miterlimit:10;stroke-width:2px;}.cls-2,.cls-4{stroke-linecap:round;}.cls-3,.cls-4{fill:#fafafa;}</style></defs><title>자산 3</title><g id="레이어_2" data-name="레이어 2"><g id="레이어_3" data-name="레이어 3"><rect class="cls-1" x="4.21" y="2.26" width="29.03" height="17.42" rx="3.28" ry="3.28"/><rect class="cls-1" x="6.9" y="7.11" width="6.79" height="7.45" rx="2.51" ry="2.51"/><path class="cls-1" d="M27.92,28.24H2c-.85,0-1.22-.71-.82-1.57l2.49-5.41a2.8,2.8,0,0,1,2.27-1.58H31.86c.85,0,1.22.71.82,1.58l-2.49,5.41A2.81,2.81,0,0,1,27.92,28.24Z"/><line class="cls-2" x1="18.72" y1="7.81" x2="30.73" y2="7.81"/><line class="cls-2" x1="18.72" y1="10.84" x2="30.17" y2="10.84"/><line class="cls-2" x1="18.72" y1="13.75" x2="23.92" y2="13.75"/><line class="cls-2" x1="10.07" y1="19.68" x2="6.57" y2="28.09"/><line class="cls-2" x1="16.37" y1="19.68" x2="12.93" y2="28.24"/><line class="cls-2" x1="19.7" y1="22.35" x2="27.47" y2="22.35"/><line class="cls-2" x1="19.7" y1="24.7" x2="23.92" y2="24.7"/><path class="cls-2" d="M42,4.45a2.42,2.42,0,0,0-2.41-1.87c-1.64.08-1.91,1.18-1.88,1.87s.56,1.46,1.89,1.6,2.11.81,2.11,1.76a1.82,1.82,0,0,1-2,1.66c-1.19,0-2.26-.79-2.26-1.66"/><line class="cls-2" x1="39.57" y1="1" x2="39.57" y2="2.52"/><line class="cls-2" x1="39.7" y1="9.47" x2="39.7" y2="10.97"/><ellipse class="cls-2" cx="37.33" cy="26.15" rx="8.75" ry="1.35"/><ellipse class="cls-3" cx="37.41" cy="25.07" rx="9.59" ry="1.66"/><ellipse class="cls-2" cx="37.33" cy="23.4" rx="8.75" ry="1.35"/><ellipse class="cls-3" cx="37.41" cy="22.32" rx="9.59" ry="1.66"/><ellipse class="cls-2" cx="37.33" cy="20.66" rx="8.75" ry="1.35"/><ellipse class="cls-3" cx="37.41" cy="19.57" rx="9.59" ry="1.66"/><ellipse class="cls-2" cx="37.33" cy="17.91" rx="8.75" ry="1.35"/><ellipse class="cls-3" cx="37.41" cy="16.82" rx="9.59" ry="1.66"/><ellipse class="cls-4" cx="37.33" cy="15.16" rx="8.75" ry="1.35"/></g></g></svg>